<?xml version="1.0" encoding="UTF-8"?>
<svg id="Objects" xmlns="http://www.w3.org/2000/svg" viewBox="0 0 955.14 971.03">
  <defs>
    <style>
      .cls-1 {
        fill: #212224;
        stroke-width: 0px;
      }
    </style>
  </defs>
  <path class="cls-1" d="M886.81,313.36c-22.13-52.31-53.8-99.29-94.14-139.63-40.34-40.34-87.32-72.02-139.64-94.14-54.16-22.91-111.7-34.53-171-34.53s-116.83,11.62-171,34.53c-52.31,22.13-99.29,53.8-139.63,94.14-40.34,40.34-72.02,87.32-94.14,139.63-22.91,54.16-34.53,111.7-34.53,171,0,52.94,9.32,104.7,27.69,153.85,17.76,47.48,43.46,91.25,76.38,130.08,4.11,4.85,8.4,9.69,12.74,14.38,10.34,11.16,21.37,21.91,32.79,31.94,0,0,0,0,0,0,80.11,70.32,182.98,109.04,289.68,109.04s209.58-38.73,289.68-109.04c0,0,0,0,0,0,11.42-10.03,22.46-20.78,32.8-31.94,4.34-4.69,8.63-9.53,12.74-14.38,32.93-38.84,58.63-82.6,76.39-130.09,18.38-49.14,27.69-100.91,27.69-153.85,0-59.3-11.62-116.83-34.53-171ZM482.03,907.98c-100.64,0-197.75-35.73-274.24-100.74,30.84-47.15,70.87-86.31,116.11-113.5,49.16-29.55,102.36-44.53,158.13-44.53s108.97,14.98,158.13,44.53c45.24,27.19,85.27,66.34,116.11,113.5-76.49,65.02-173.6,100.74-274.24,100.74ZM878.96,632.72c-17.12,45.78-41.9,87.98-73.66,125.44-3.96,4.67-8.1,9.34-12.28,13.86-7.92,8.55-16.26,16.84-24.88,24.74-31.96-48.27-73.25-88.42-119.89-116.45-50.9-30.59-108.38-46.77-166.21-46.77s-115.3,16.17-166.21,46.77c-46.64,28.03-87.93,68.18-119.89,116.45-8.62-7.9-16.96-16.19-24.88-24.74-4.19-4.52-8.32-9.18-12.28-13.86-31.76-37.45-56.54-79.65-73.66-125.44-17.72-47.38-26.7-97.3-26.7-148.36,0-57.19,11.2-112.67,33.29-164.89,21.34-50.44,51.88-95.75,90.79-134.66,38.91-38.91,84.21-69.45,134.66-90.79,52.22-22.09,107.7-33.29,164.89-33.29s112.67,11.2,164.89,33.29c50.44,21.34,95.75,51.88,134.66,90.79,38.91,38.91,69.45,84.21,90.79,134.66,22.09,52.22,33.29,107.7,33.29,164.89,0,51.06-8.98,100.97-26.7,148.36Z"/>
  <path class="cls-1" d="M482.04,212.9c-100.41,0-182.1,81.69-182.1,182.1s81.69,182.1,182.1,182.1,182.1-81.69,182.1-182.1-81.69-182.1-182.1-182.1ZM482.04,561.42c-91.77,0-166.42-74.66-166.42-166.42s74.66-166.42,166.42-166.42,166.42,74.66,166.42,166.42-74.66,166.42-166.42,166.42Z"/>
</svg>